<svg width="16" height="22" viewBox="0 0 16 22" fill="none" xmlns="http://www.w3.org/2000/svg">
<path d="M7.01337 19.7047C6.9217 18.9102 6.89114 18.0852 6.76892 17.3212C6.55502 16.0379 5.94389 15.0295 4.78275 14.3878C3.80494 13.8684 2.82713 13.41 1.81877 12.9211C1.5132 12.7683 1.17708 12.6461 0.871517 12.4933C0.627065 12.3711 0.474283 12.1572 0.565952 11.8822C0.627065 11.6989 0.840961 11.5766 0.993743 11.4238C1.0243 11.3933 1.08541 11.3933 1.14653 11.3933C3.56049 10.9044 5.17998 9.346 6.28002 7.26816C7.25782 5.46533 8.05229 3.57083 8.93843 1.73744C9.06066 1.46243 9.18288 1.18742 9.33566 0.973527C9.42733 0.851301 9.67179 0.729075 9.82457 0.759632C9.97735 0.790188 10.1607 0.973527 10.1912 1.15687C10.2524 1.34021 10.2218 1.58466 10.1912 1.79855C10.1301 2.22634 10.069 2.65413 9.97735 3.11248C9.61067 4.91531 9.97735 6.65703 10.344 8.39875C10.5274 9.16267 10.9857 9.71268 11.658 10.0794C12.5135 10.5377 13.3997 10.8433 14.3469 11.0572C14.6525 11.1183 15.0803 11.1183 15.1108 11.5766C15.1414 12.0655 14.7136 12.1878 14.3775 12.2794C12.9108 12.6461 11.8719 13.6239 10.9246 14.7545C9.94679 15.9156 9.18288 17.2296 8.69398 18.6657C8.41897 19.4602 8.17452 20.2547 7.89951 21.0186C7.8384 21.1714 7.8384 21.3241 7.74673 21.4158C7.6245 21.5686 7.41061 21.7825 7.28838 21.7519C7.1356 21.7214 7.01337 21.4769 6.9217 21.2936C6.86059 21.1714 6.89115 21.0186 6.89115 20.8658C6.89115 20.4686 6.89115 20.0713 6.89115 19.7047C6.95226 19.7047 6.98281 19.7047 7.01337 19.7047Z" fill="black"/>
</svg>
